<?xml version="1.0" standalone="no"?>
<!DOCTYPE svg PUBLIC "-//W3C//DTD SVG 20010904//EN"
 "http://www.w3.org/TR/2001/REC-SVG-20010904/DTD/svg10.dtd">
<svg version="1.0" xmlns="http://www.w3.org/2000/svg"
 width="260.000000pt" height="260.000000pt" viewBox="0 0 260.000000 260.000000"
 preserveAspectRatio="xMidYMid meet">
<metadata>
Created by potrace 1.14, written by Peter Selinger 2001-2017
</metadata>
<g transform="translate(0.000000,260.000000) scale(0.100000,-0.100000)"
fill="#000000" stroke="none">
<path d="M414 2589 c-4 -7 -3 -9 3 -6 10 7 35 -19 46 -47 4 -10 12 -14 18 -10
8 4 9 3 5 -4 -5 -8 -15 -8 -32 -2 -17 7 -23 7 -19 0 3 -6 11 -10 17 -10 6 0
17 -8 24 -17 12 -17 13 -16 23 7 11 24 11 24 8 -7 -4 -35 12 -49 33 -30 10 9
11 9 6 0 -9 -16 4 -43 21 -43 10 0 14 -7 10 -19 -3 -13 0 -18 8 -15 7 3 16 0
20 -5 3 -6 12 -8 18 -4 7 4 5 -1 -3 -12 -14 -17 -13 -17 10 -10 23 7 24 7 10
-10 -14 -17 -13 -18 3 -12 10 4 16 3 12 -3 -7 -11 29 -32 39 -23 3 3 6 -3 6
-15 0 -12 9 -26 20 -32 11 -6 20 -17 20 -25 0 -8 8 -19 18 -24 12 -7 14 -13 6
-18 -9 -6 -8 -12 2 -21 13 -12 18 -8 15 11 -1 5 3 6 8 2 6 -3 7 -13 4 -21 -4
-10 2 -17 16 -21 15 -4 21 -13 21 -32 0 -19 3 -22 9 -12 7 11 11 9 20 -8 10
-18 9 -21 -6 -21 -16 -1 -17 -1 -1 -10 10 -6 14 -18 11 -32 -4 -18 -2 -20 6
-8 9 12 11 12 17 -3 3 -9 11 -14 18 -10 6 3 6 1 -1 -8 -15 -15 -18 -43 -4 -35
4 3 17 -1 27 -10 19 -15 19 -15 -1 -10 -16 5 -20 1 -20 -18 0 -14 2 -24 5 -24
19 1 23 -4 10 -12 -12 -8 -11 -10 8 -10 26 0 28 -12 6 -31 -13 -10 -17 -10
-25 2 -7 11 -9 11 -9 -3 0 -10 11 -25 24 -33 14 -9 24 -25 24 -40 0 -14 -4
-23 -7 -20 -4 2 -12 -5 -19 -16 -10 -16 -10 -20 2 -25 16 -6 10 -40 -9 -48
-17 -6 -13 -35 6 -47 11 -7 11 -9 -3 -9 -20 0 -23 -11 -7 -27 8 -8 8 -13 0
-17 -6 -4 -11 -12 -11 -17 0 -6 5 -7 11 -4 6 4 5 -1 -2 -13 -7 -11 -19 -17
-30 -15 -10 3 -17 -1 -16 -9 1 -34 -4 -48 -20 -49 -17 0 -17 -1 0 -8 17 -6 17
-8 -2 -33 -12 -14 -21 -32 -21 -40 0 -9 -3 -9 -8 -2 -4 7 -15 8 -27 3 -18 -7
-18 -8 -2 -8 32 -2 4 -60 -29 -61 -15 0 -24 -36 -12 -48 5 -5 -3 -8 -22 -7
-17 1 -33 -2 -36 -7 -3 -5 0 -7 7 -6 7 2 13 -1 14 -7 0 -5 4 -16 9 -24 6 -10
5 -12 -2 -7 -7 4 -12 1 -12 -8 0 -9 -5 -16 -11 -16 -5 0 -7 -4 -4 -10 3 -5 -2
-10 -12 -11 -17 0 -17 -1 1 -8 16 -6 16 -9 4 -22 -15 -16 -16 -28 -5 -46 5 -7
5 -18 2 -23 -4 -6 -1 -17 5 -25 9 -11 9 -15 1 -15 -6 0 -11 -7 -11 -15 0 -8 4
-15 9 -15 5 0 8 -8 6 -17 -2 -10 -4 -21 -4 -25 -1 -5 -10 -8 -21 -8 -21 0 -27
-14 -11 -24 5 -4 12 0 14 6 4 9 6 8 6 -2 1 -8 11 -28 22 -45 12 -16 18 -22 15
-12 -3 11 -2 16 4 12 14 -9 12 -32 -3 -38 -7 -3 -2 -9 13 -15 22 -9 22 -11 5
-12 -16 0 -17 -2 -5 -9 8 -6 17 -8 21 -5 4 2 11 -1 15 -7 4 -8 3 -9 -4 -5 -7
4 -12 1 -12 -6 0 -10 -2 -10 -8 -1 -5 8 -13 9 -22 3 -8 -6 -13 -10 -10 -11 22
-4 40 -10 75 -23 31 -13 33 -15 10 -10 l-30 6 25 -24 c14 -13 26 -18 28 -12 2
6 14 9 27 6 14 -2 22 -8 19 -13 -3 -5 -1 -9 5 -9 5 0 9 -17 8 -38 -2 -29 1
-38 14 -38 8 0 16 6 16 13 0 7 -5 9 -11 6 -6 -3 -8 -3 -4 2 4 4 2 15 -5 24 -7
9 -2 8 14 -4 18 -13 25 -27 23 -45 -2 -21 -1 -23 9 -9 27 35 68 8 47 -32 -7
-13 -7 -19 0 -19 5 0 10 6 10 13 0 7 11 13 25 13 14 0 25 -4 25 -8 0 -4 -4 -8
-10 -8 -5 0 -10 -4 -10 -10 0 -5 9 -10 21 -10 11 0 18 -4 15 -8 -9 -15 73 -4
89 12 15 15 35 14 35 -1 0 -4 -3 -4 -6 0 -10 9 -34 -19 -34 -40 0 -11 -3 -14
-8 -7 -4 6 -16 8 -27 4 -17 -6 -16 -7 8 -12 21 -4 32 0 40 13 7 11 15 19 20
19 4 0 5 -5 1 -12 -5 -8 -2 -9 9 -5 11 4 22 -2 32 -16 14 -19 16 -20 13 -3 -2
12 4 20 14 21 23 4 34 -13 19 -28 -6 -6 -11 -16 -11 -21 0 -6 4 -5 9 2 11 18
62 5 54 -14 -6 -16 17 -15 29 1 4 6 8 -1 8 -14 0 -25 10 -24 13 1 2 7 7 14 12
14 15 2 55 -18 55 -28 0 -4 16 -8 35 -8 29 0 33 -3 28 -18 -6 -15 -5 -15 10
-3 20 16 23 1 5 -18 -11 -11 -9 -11 11 -1 13 7 26 8 30 4 3 -5 12 -9 19 -10 6
-1 21 -2 32 -2 11 -1 20 -6 20 -12 0 -5 -6 -8 -12 -7 -7 2 -3 -1 10 -7 12 -5
22 -13 22 -18 0 -4 7 -8 15 -8 8 0 15 -5 15 -12 0 -6 3 -9 6 -6 3 4 1 16 -6
27 -12 24 1 28 20 6 7 -8 20 -15 29 -15 10 0 12 -3 5 -8 -6 -4 -4 -13 8 -25
17 -16 19 -16 35 2 17 20 33 19 33 -2 0 -8 -3 -8 -9 1 -7 11 -9 11 -14 -2 -4
-10 -1 -16 9 -16 12 0 13 -4 4 -21 -11 -19 -10 -20 10 -9 15 8 19 17 15 31 -7
20 -6 20 14 2 12 -10 18 -19 13 -21 -16 -5 0 -50 19 -55 21 -6 25 3 9 19 -7 7
-6 11 4 11 10 0 13 -9 11 -28 -3 -21 0 -27 11 -22 7 3 14 0 14 -7 0 -7 8 -10
20 -7 11 3 18 2 16 -2 -3 -4 6 -20 20 -36 13 -15 24 -32 24 -37 0 -4 8 -8 18
-8 14 0 15 2 2 10 -8 5 -10 10 -4 10 16 0 35 -25 26 -35 -4 -5 1 -5 10 -2 25
9 46 -29 25 -44 -16 -11 387 -10 403 1 9 5 10 10 3 10 -6 0 -10 7 -9 15 3 20
16 31 17 14 0 -8 4 -5 8 6 10 24 -6 37 -30 24 -12 -6 -20 -5 -25 3 -4 7 -3 8
4 4 7 -4 12 -2 12 3 0 6 -6 11 -12 11 -10 0 -9 3 1 9 8 5 10 14 6 21 -5 8 -2
18 7 24 18 14 31 46 18 46 -5 0 -14 -8 -20 -18 -9 -14 -10 -12 -5 11 4 21 2
27 -12 27 -14 1 -12 4 7 15 22 13 23 14 5 15 -20 1 -20 1 -1 15 12 9 15 15 7
15 -9 0 -12 9 -9 25 3 13 1 22 -3 19 -5 -3 -9 -17 -10 -32 l-1 -27 -8 29 c-5
16 -7 33 -4 38 3 4 1 8 -5 8 -5 0 -12 -6 -14 -12 -4 -10 -6 -10 -6 0 -1 7 9
17 22 21 22 9 22 9 -6 16 -22 6 -25 10 -16 21 12 15 9 45 -6 46 -12 1 -34 29
-35 42 0 6 7 1 15 -10 9 -11 14 -14 15 -6 0 7 -11 24 -25 37 -20 21 -21 25 -7
25 10 1 5 6 -13 15 -16 7 -25 14 -18 14 14 1 5 40 -15 63 -8 10 -20 15 -26 11
-6 -4 -5 1 3 10 7 9 11 26 8 36 -3 11 0 22 7 25 6 2 3 5 -6 5 -9 1 -22 -7 -28
-16 -8 -15 -9 -12 -4 12 3 17 2 25 -3 19 -5 -7 -13 -5 -23 6 -17 18 -23 50 -9
50 5 0 9 -10 9 -22 0 -12 3 -19 6 -15 4 3 4 17 0 31 -4 18 -11 23 -26 19 -28
-7 -26 21 3 36 l22 11 -22 -5 c-13 -3 -32 -8 -43 -11 -15 -4 -18 -2 -14 10 4
11 1 16 -10 16 -9 0 -16 6 -14 12 1 7 -3 23 -10 35 -7 13 -9 23 -4 23 5 0 7
11 4 25 -3 20 -7 23 -23 15 -21 -12 -72 -2 -63 12 3 5 12 4 20 -3 12 -10 18
-9 31 4 15 14 14 15 -3 13 -10 -2 -37 3 -58 11 -29 10 -41 10 -47 2 -5 -8 -8
-8 -13 0 -4 6 -2 11 4 11 7 0 10 13 9 33 -2 18 1 39 6 47 7 12 6 13 -6 3 -9
-7 -14 -25 -13 -43 2 -36 -11 -40 -20 -5 -5 18 -11 23 -24 18 -14 -5 -13 -3 3
11 11 10 14 15 7 11 -6 -3 -12 -2 -12 3 0 6 -13 14 -28 20 -22 7 -32 6 -50 -8
-11 -10 -19 -20 -17 -24 3 -3 2 -3 -3 0 -4 3 -8 10 -8 15 -1 5 -2 14 -3 19 0
6 -6 10 -12 10 -5 0 -7 -6 -3 -12 4 -7 -2 -4 -14 6 -12 11 -22 30 -22 43 0 12
-4 23 -10 23 -5 0 -10 -4 -10 -10 0 -21 -19 -8 -29 20 -5 17 -16 30 -23 29
-10 0 -10 -2 0 -6 25 -10 11 -20 -20 -14 -18 4 -40 3 -49 -2 -20 -12 -53 -1
-44 14 4 6 13 8 21 5 8 -3 14 0 14 5 0 7 -11 9 -26 6 -19 -3 -24 -1 -20 10 3
8 6 16 6 19 0 2 7 1 15 -2 8 -4 15 -1 15 5 0 6 -7 11 -16 11 -14 0 -14 3 -4
15 9 11 9 15 1 15 -6 0 -15 -9 -19 -21 -7 -19 -9 -19 -22 -4 -11 13 -11 21 -2
36 7 11 8 19 2 19 -5 0 -10 9 -10 21 0 11 -5 17 -10 14 -7 -4 -6 -13 1 -26 14
-28 4 -36 -12 -11 -12 19 -14 19 -26 4 -19 -25 -16 -31 12 -26 14 2 25 1 25
-4 0 -4 -14 -9 -31 -10 -27 -2 -31 0 -26 18 3 11 1 23 -4 26 -5 3 -9 -9 -9
-25 0 -17 -3 -30 -7 -29 -5 2 -9 -1 -10 -7 -2 -5 1 -10 6 -10 5 0 12 -3 16 -7
9 -9 -16 -5 -32 5 -7 5 -19 5 -25 1 -7 -3 -1 5 15 18 16 15 27 36 27 51 0 19
4 25 14 21 8 -3 17 -1 21 5 3 7 0 8 -9 5 -11 -4 -16 0 -16 11 0 9 -5 13 -10
10 -6 -4 -8 -11 -5 -16 4 -5 1 -9 -5 -9 -6 0 -8 -6 -4 -12 5 -10 4 -10 -5 -2
-16 15 4 50 34 58 17 5 18 8 5 15 -10 7 -17 6 -22 -2 -6 -9 -8 -8 -8 3 0 13
-1 13 -10 0 -6 -10 -10 -11 -10 -2 0 6 -5 12 -11 12 -5 0 -7 -4 -4 -10 3 -5 1
-10 -4 -10 -15 0 -14 33 1 48 6 6 9 15 5 19 -4 3 -14 -2 -22 -13 -8 -10 -15
-14 -15 -7 0 6 -10 9 -22 7 -13 -2 -8 2 10 9 18 7 30 16 25 21 -5 5 -2 6 6 1
8 -4 17 -2 22 6 6 10 9 8 9 -8 0 -15 5 -21 14 -17 8 3 12 13 9 22 -3 11 2 8
14 -6 12 -14 32 -25 50 -26 26 -2 32 2 36 23 3 15 1 32 -5 39 -8 9 -6 12 6 12
10 0 15 4 12 9 -4 5 -17 8 -31 6 -14 -1 -28 2 -31 6 -3 5 1 9 8 9 7 0 26 7 41
15 19 10 26 10 22 2 -4 -7 -1 -5 7 4 20 23 48 31 48 14 0 -8 7 -15 15 -15 8 0
15 5 15 11 0 5 -4 7 -10 4 -5 -3 -10 -1 -10 4 0 6 5 11 11 11 8 0 8 4 0 14
-16 19 3 31 44 28 20 -1 26 1 16 7 -11 7 -11 9 0 13 8 3 27 -9 43 -26 l28 -31
-20 38 c-21 36 -13 54 8 20 8 -15 9 -13 4 8 -3 15 -1 30 5 33 6 4 11 0 11 -8
0 -9 5 -16 10 -16 6 0 10 9 10 21 0 11 5 17 10 14 6 -3 25 10 44 30 27 29 35
32 40 19 8 -22 8 -26 -4 -19 -6 3 -7 -1 -4 -9 6 -16 25 -23 23 -8 -1 4 0 12 1
17 1 6 3 17 4 25 0 8 6 14 13 13 7 -2 10 4 7 12 -5 12 -10 12 -27 3 -12 -6
-19 -7 -15 -3 4 5 2 15 -5 23 -10 13 -9 15 6 9 12 -4 17 -1 17 11 0 14 2 14 9
3 8 -13 12 -13 26 -1 14 12 18 12 26 -1 7 -12 9 -12 9 1 0 13 2 13 11 0 9 -13
10 -12 5 3 -4 13 0 17 19 17 25 0 33 14 15 25 -6 3 -10 1 -10 -5 0 -6 -5 -8
-11 -5 -7 5 -5 11 5 18 8 7 17 23 19 37 4 24 4 24 6 -3 0 -16 5 -26 11 -22 6
4 7 11 4 17 -5 8 -1 9 10 5 14 -6 17 -3 12 8 -3 9 -2 14 3 11 5 -3 14 0 20 8
7 8 22 12 34 10 21 -4 21 -4 2 5 l-20 10 20 1 c16 1 14 4 -10 15 -16 7 -23 14
-15 14 9 1 21 15 27 31 13 36 36 39 57 8 9 -12 16 -17 16 -11 0 7 -5 15 -10
18 -6 4 -8 10 -5 15 8 13 -6 41 -18 33 -6 -4 -7 -1 -2 7 7 11 12 9 23 -8 8
-12 21 -22 28 -22 8 0 14 -5 14 -12 0 -6 3 -8 7 -4 4 4 -3 16 -17 27 l-25 19
27 -9 c20 -8 28 -7 32 5 4 9 -1 14 -15 14 -11 0 -17 5 -14 10 3 6 -3 10 -15
10 -12 0 -19 4 -15 10 3 5 13 6 21 3 10 -4 17 2 21 16 3 11 13 21 22 21 12 0
13 -2 3 -9 -11 -7 -10 -10 3 -15 23 -8 27 -8 20 4 -3 6 -2 10 3 10 5 0 8 10 8
23 -1 12 3 28 8 36 9 12 7 13 -6 8 -14 -5 -16 -1 -13 25 2 16 7 33 11 37 4 3
5 -1 2 -10 -4 -9 -2 -22 3 -30 7 -11 9 -11 9 4 0 20 11 22 27 6 6 -6 17 -8 24
-3 9 5 5 10 -12 17 -13 6 -27 9 -31 9 -5 -1 -8 2 -8 8 0 5 7 10 16 10 10 0 14
6 10 15 -3 8 -1 15 4 15 6 0 10 -5 10 -10 0 -7 6 -7 20 0 11 6 19 14 18 18 -2
11 15 46 26 54 8 5 7 8 -1 8 -6 0 -10 9 -8 20 2 12 -2 20 -10 20 -7 0 -16 7
-19 16 -4 12 -2 15 9 10 8 -3 15 0 15 7 0 8 4 6 10 -3 8 -13 10 -12 10 3 0 9
4 17 10 17 5 0 6 -8 3 -17 -6 -15 -5 -16 9 -3 11 11 13 22 7 45 -5 16 -9 32
-9 34 0 2 -7 -2 -15 -9 -9 -7 -18 -10 -22 -6 -3 3 -1 6 7 6 10 0 10 3 0 15
-11 13 -139 15 -995 15 -738 0 -986 -3 -991 -11z m1971 -39 c3 -6 -1 -7 -9 -4
-18 7 -21 14 -7 14 6 0 13 -4 16 -10z m45 -5 c0 -8 -7 -15 -15 -15 -26 0 -18
20 13 29 1 1 2 -6 2 -14z m-63 -92 c-4 -3 -2 -12 4 -19 8 -10 6 -19 -5 -36 -9
-12 -16 -18 -16 -12 0 5 6 16 13 23 10 11 8 13 -10 9 -15 -4 -23 0 -26 13 -3
11 -2 17 2 15 4 -3 13 -1 21 5 17 10 26 12 17 2z m-100 -235 c-3 -8 -6 -5 -6
6 -1 11 2 17 5 13 3 -3 4 -12 1 -19z m-97 -68 c0 -5 -5 -10 -11 -10 -5 0 -7 5
-4 10 3 6 8 10 11 10 2 0 4 -4 4 -10z m-90 -165 c-7 -9 -15 -13 -19 -10 -3 3
1 10 9 15 21 14 24 12 10 -5z m-90 -60 c11 -13 10 -14 -4 -9 -9 3 -16 10 -16
15 0 13 6 11 20 -6z m-30 -51 c0 -8 -5 -12 -10 -9 -6 4 -8 11 -5 16 9 14 15
11 15 -7z m-154 -66 c4 -7 3 -8 -4 -4 -7 4 -12 1 -12 -8 0 -8 6 -17 13 -19 9
-4 9 -6 0 -6 -16 -1 -26 17 -19 34 7 18 12 19 22 3z m43 -14 c-6 -7 -15 -11
-20 -8 -5 3 -3 11 4 18 16 18 31 8 16 -10z m-49 -44 c0 -5 -2 -10 -4 -10 -3 0
-8 5 -11 10 -3 6 -1 10 4 10 6 0 11 -4 11 -10z m-843 -26 c-3 -3 -12 -4 -19
-1 -8 3 -5 6 6 6 11 1 17 -2 13 -5z m746 -22 c-5 -11 -7 -11 -14 0 -7 10 -9
10 -9 1 0 -7 -5 -13 -11 -13 -8 0 -8 4 0 13 14 18 41 18 34 -1z m-752 -25
c-10 -9 -11 -8 -5 6 3 10 9 15 12 12 3 -3 0 -11 -7 -18z m624 -65 c-3 -3 -11
0 -18 7 -9 10 -8 11 6 5 10 -3 15 -9 12 -12z m-131 -48 c3 -8 2 -12 -4 -9 -6
3 -10 10 -10 16 0 14 7 11 14 -7z m-24 -14 c0 -5 -5 -10 -11 -10 -5 0 -7 5 -4
10 3 6 8 10 11 10 2 0 4 -4 4 -10z m-35 -10 c3 -5 -1 -10 -9 -10 -9 0 -16 5
-16 10 0 6 4 10 9 10 6 0 13 -4 16 -10z m115 -13 c0 -5 -10 -5 -21 -2 -15 5
-19 4 -15 -4 4 -6 2 -11 -3 -11 -6 0 -11 7 -11 15 0 10 9 14 25 13 14 -1 25
-6 25 -11z m15 -27 c3 -5 0 -10 -9 -10 -8 0 -21 -3 -30 -6 -9 -3 -16 -1 -16 4
0 9 15 16 42 21 4 0 10 -3 13 -9z m-150 -130 c-3 -5 -12 -10 -18 -10 -7 0 -6
4 3 10 19 12 23 12 15 0z m55 -61 c0 -4 -9 -5 -20 -2 -11 3 -20 10 -20 15 0 5
-5 6 -12 2 -7 -4 -8 -3 -4 4 7 12 56 -4 56 -19z m-637 -33 c4 -10 1 -13 -8 -9
-8 3 -12 9 -9 14 7 12 11 11 17 -5z m742 -26 c10 -11 13 -20 8 -20 -6 0 -13 6
-16 14 -3 8 -18 16 -34 19 -28 4 -28 4 -2 6 15 0 34 -8 44 -19z m-15 -20 c0
-5 -4 -10 -10 -10 -5 0 -10 5 -10 10 0 6 5 10 10 10 6 0 10 -4 10 -10z m33
-30 c3 -11 1 -20 -4 -20 -5 0 -9 9 -9 20 0 11 2 20 4 20 2 0 6 -9 9 -20z m107
-40 c-20 -13 -33 -13 -25 0 3 6 14 10 23 10 15 0 15 -2 2 -10z m50 1 c0 -6 -4
-13 -10 -16 -5 -3 -10 1 -10 9 0 9 5 16 10 16 6 0 10 -4 10 -9z m7 -66 c0 -8
-4 -15 -9 -15 -10 0 -11 14 -1 23 9 10 10 9 10 -8z m168 -13 c-3 -3 -1 -10 5
-16 5 -7 5 -17 0 -26 -8 -12 -10 -11 -10 6 0 11 -5 25 -10 30 -7 7 -6 11 5 11
8 0 13 -3 10 -5z m221 -159 c-10 -11 -37 -12 -30 -2 3 5 12 9 21 9 9 0 13 -3
9 -7z m-1396 -19 c0 -8 -5 -12 -10 -9 -6 4 -8 11 -5 16 9 14 15 11 15 -7z m83
-129 c-7 -21 -12 -19 -10 4 0 11 5 18 9 15 4 -3 5 -11 1 -19z m241 -164 c4 -5
-3 -7 -14 -4 -23 6 -26 13 -6 13 8 0 17 -4 20 -9z m69 -54 c6 -16 -39 -21 -49
-5 -5 8 -2 9 9 5 9 -3 19 -2 22 3 8 13 12 12 18 -3z m224 -73 c-3 -3 -12 -4
-19 -1 -8 3 -5 6 6 6 11 1 17 -2 13 -5z m216 -79 c-3 -9 -8 -14 -10 -11 -3 3
-2 9 2 15 9 16 15 13 8 -4z m847 5 c0 -5 -4 -10 -10 -10 -5 0 -10 5 -10 10 0
6 5 10 10 10 6 0 10 -4 10 -10z m-790 -30 c0 -5 -5 -10 -11 -10 -5 0 -7 5 -4
10 3 6 8 10 11 10 2 0 4 -4 4 -10z m45 -10 c3 -5 2 -10 -4 -10 -5 0 -13 5 -16
10 -3 6 -2 10 4 10 5 0 13 -4 16 -10z m310 -180 c3 -5 1 -10 -4 -10 -6 0 -11
5 -11 10 0 6 2 10 4 10 3 0 8 -4 11 -10z"/>
<path d="M2446 2576 c3 -9 11 -16 16 -16 13 0 5 23 -10 28 -7 2 -10 -2 -6 -12z"/>
<path d="M2340 2320 c0 -5 5 -10 10 -10 6 0 10 5 10 10 0 6 -4 10 -10 10 -5 0
-10 -4 -10 -10z"/>
<path d="M2134 2060 c2 -16 20 -14 24 2 3 10 2 10 -6 -1 -7 -9 -11 -10 -15 -2
-4 7 -5 8 -3 1z"/>
<path d="M2159 2023 c-1 -5 -1 -11 0 -15 0 -5 -3 -8 -9 -8 -5 0 -10 -5 -10
-12 0 -9 3 -9 12 0 11 11 20 42 12 42 -2 0 -5 -3 -5 -7z"/>
<path d="M2080 1925 c-7 -8 -16 -13 -20 -10 -4 3 -13 -2 -19 -9 -9 -11 -9 -16
0 -22 8 -4 9 -3 5 4 -5 8 0 12 13 12 12 0 30 9 41 20 14 14 16 20 6 20 -7 0
-19 -7 -26 -15z"/>
<path d="M2030 1859 c0 -5 5 -7 10 -4 6 3 10 8 10 11 0 2 -4 4 -10 4 -5 0 -10
-5 -10 -11z"/>
<path d="M1998 1838 c-10 -10 -14 -18 -9 -18 10 0 36 29 30 34 -2 1 -12 -6
-21 -16z"/>
<path d="M1933 1808 c2 -21 19 -19 22 3 2 9 -3 16 -10 16 -8 0 -13 -9 -12 -19z"/>
<path d="M1836 1695 c10 -8 23 -15 28 -15 6 0 1 7 -10 15 -10 8 -23 15 -28 15
-6 0 -1 -7 10 -15z"/>
<path d="M1691 1641 c-11 -7 -11 -9 0 -14 9 -3 10 -6 2 -6 -6 -1 -15 4 -18 9
-3 6 -16 9 -28 9 -18 -1 -19 -2 -4 -6 15 -4 16 -7 6 -19 -10 -12 -9 -17 1 -27
10 -10 12 -9 7 5 -4 12 0 17 16 17 65 2 64 1 44 12 -9 6 -15 14 -12 20 8 11 4
11 -14 0z"/>
<path d="M1565 1570 c-3 -6 1 -7 9 -4 18 7 21 14 7 14 -6 0 -13 -4 -16 -10z"/>
<path d="M830 1546 c0 -2 7 -7 16 -10 8 -3 12 -2 9 4 -6 10 -25 14 -25 6z"/>
<path d="M870 1540 c0 -5 5 -10 11 -10 5 0 7 5 4 10 -3 6 -8 10 -11 10 -2 0
-4 -4 -4 -10z"/>
<path d="M1585 1540 c3 -5 8 -10 11 -10 2 0 4 5 4 10 0 6 -5 10 -11 10 -5 0
-7 -4 -4 -10z"/>
<path d="M1540 1510 c0 -5 5 -10 11 -10 5 0 7 5 4 10 -3 6 -8 10 -11 10 -2 0
-4 -4 -4 -10z"/>
<path d="M1578 1513 c7 -3 16 -2 19 1 4 3 -2 6 -13 5 -11 0 -14 -3 -6 -6z"/>
<path d="M1405 1449 c-16 -11 -25 -19 -20 -20 62 -6 78 -6 68 -2 -7 2 -10 10
-7 18 9 22 -9 23 -41 4z m35 1 c0 -5 -5 -10 -11 -10 -5 0 -7 5 -4 10 3 6 8 10
11 10 2 0 4 -4 4 -10z"/>
<path d="M1468 1438 c5 -5 16 -8 23 -6 8 3 3 7 -10 11 -17 4 -21 3 -13 -5z"/>
<path d="M1500 1420 c-12 -7 -10 -9 7 -7 12 0 19 5 17 9 -6 10 -6 10 -24 -2z"/>
<path d="M1544 1405 c-4 -8 -10 -12 -15 -9 -5 3 -9 0 -9 -5 0 -18 19 -12 30 9
6 11 8 20 5 20 -3 0 -8 -7 -11 -15z"/>
<path d="M1592 1300 c0 -14 2 -19 5 -12 2 6 2 18 0 25 -3 6 -5 1 -5 -13z"/>
<path d="M1607 1229 c4 -13 8 -18 11 -10 2 7 -1 18 -6 23 -8 8 -9 4 -5 -13z"/>
<path d="M1676 1242 c-3 -5 1 -9 9 -9 8 0 12 4 9 9 -3 4 -7 8 -9 8 -2 0 -6 -4
-9 -8z"/>
<path d="M1768 1133 c7 -3 16 -2 19 1 4 3 -2 6 -13 5 -11 0 -14 -3 -6 -6z"/>
<path d="M1840 1126 c0 -2 7 -6 15 -10 8 -3 15 -1 15 4 0 6 -7 10 -15 10 -8 0
-15 -2 -15 -4z"/>
<path d="M642 1040 c12 -19 28 -27 28 -14 0 7 -27 34 -34 34 -4 0 -1 -9 6 -20z"/>
<path d="M1986 1015 c4 -8 11 -15 16 -15 6 0 5 6 -2 15 -7 8 -14 15 -16 15 -2
0 -1 -7 2 -15z"/>
<path d="M2150 885 c0 -8 2 -15 4 -15 2 0 6 7 10 15 3 8 1 15 -4 15 -6 0 -10
-7 -10 -15z"/>
<path d="M2146 853 c5 -5 12 -12 15 -16 3 -5 9 -2 12 7 5 12 0 16 -15 16 -12
0 -17 -3 -12 -7z"/>
<path d="M772 696 c7 -8 15 -12 17 -11 5 6 -10 25 -20 25 -5 0 -4 -6 3 -14z"/>
<path d="M824 684 c3 -9 6 -18 6 -20 0 -3 4 -3 10 1 11 7 2 35 -12 35 -6 0 -7
-7 -4 -16z"/>
<path d="M805 670 c3 -5 8 -10 11 -10 2 0 4 5 4 10 0 6 -5 10 -11 10 -5 0 -7
-4 -4 -10z"/>
<path d="M948 593 c7 -3 16 -2 19 1 4 3 -2 6 -13 5 -11 0 -14 -3 -6 -6z"/>
</g>
</svg>
